<mxfile host="Electron" modified="2023-06-20T17:40:19.157Z" agent="Mozilla/5.0 (X11; Linux x86_64) AppleWebKit/537.36 (KHTML, like Gecko) draw.io/21.5.0 Chrome/112.0.5615.204 Electron/24.5.1 Safari/537.36" etag="QucD_sY1S7bsVkAEVadJ" version="21.5.0" type="device">
  <diagram name="Page-1" id="uFwYqDu03ui0PtWeSSTH">
    <mxGraphModel dx="1960" dy="703" grid="1" gridSize="10" guides="1" tooltips="1" connect="1" arrows="1" fold="1" page="1" pageScale="1" pageWidth="827" pageHeight="1169" math="0" shadow="0">
      <root>
        <mxCell id="0" />
        <mxCell id="1" parent="0" />
        <mxCell id="_r9maqkyMBtUnsPMcbrM-1" value="&lt;font style=&quot;font-size: 16px;&quot;&gt;Guest&lt;/font&gt;" style="shape=umlActor;verticalLabelPosition=bottom;verticalAlign=top;html=1;outlineConnect=0;" vertex="1" parent="1">
          <mxGeometry x="-400" y="280" width="40" height="80" as="geometry" />
        </mxCell>
        <mxCell id="_r9maqkyMBtUnsPMcbrM-4" value="&lt;font style=&quot;font-size: 16px;&quot;&gt;Book room&lt;/font&gt;" style="ellipse;whiteSpace=wrap;html=1;" vertex="1" parent="1">
          <mxGeometry x="110" y="200" width="140" height="60" as="geometry" />
        </mxCell>
        <mxCell id="_r9maqkyMBtUnsPMcbrM-5" value="&lt;font style=&quot;font-size: 16px;&quot;&gt;Payment&lt;/font&gt;" style="ellipse;whiteSpace=wrap;html=1;" vertex="1" parent="1">
          <mxGeometry x="-10" y="80" width="140" height="60" as="geometry" />
        </mxCell>
        <mxCell id="_r9maqkyMBtUnsPMcbrM-6" value="&lt;font style=&quot;font-size: 15px;&quot;&gt;View account&lt;/font&gt;" style="ellipse;whiteSpace=wrap;html=1;" vertex="1" parent="1">
          <mxGeometry x="110" y="280" width="140" height="60" as="geometry" />
        </mxCell>
        <mxCell id="_r9maqkyMBtUnsPMcbrM-7" value="&lt;font style=&quot;font-size: 16px;&quot;&gt;Register new account&lt;/font&gt;" style="ellipse;whiteSpace=wrap;html=1;" vertex="1" parent="1">
          <mxGeometry x="110" y="360" width="140" height="60" as="geometry" />
        </mxCell>
        <mxCell id="_r9maqkyMBtUnsPMcbrM-8" value="&lt;font style=&quot;font-size: 16px;&quot;&gt;Print booking&lt;/font&gt;" style="ellipse;whiteSpace=wrap;html=1;" vertex="1" parent="1">
          <mxGeometry x="110" y="680" width="140" height="60" as="geometry" />
        </mxCell>
        <mxCell id="_r9maqkyMBtUnsPMcbrM-9" value="&lt;font style=&quot;font-size: 16px;&quot;&gt;Cancel booking&lt;/font&gt;" style="ellipse;whiteSpace=wrap;html=1;" vertex="1" parent="1">
          <mxGeometry x="110" y="440" width="140" height="60" as="geometry" />
        </mxCell>
        <mxCell id="_r9maqkyMBtUnsPMcbrM-10" value="&lt;font style=&quot;font-size: 16px;&quot;&gt;Login / Logout&lt;/font&gt;" style="ellipse;whiteSpace=wrap;html=1;" vertex="1" parent="1">
          <mxGeometry x="110" y="760" width="140" height="60" as="geometry" />
        </mxCell>
        <mxCell id="_r9maqkyMBtUnsPMcbrM-11" value="&lt;font style=&quot;font-size: 16px;&quot;&gt;Update booking&lt;/font&gt;" style="ellipse;whiteSpace=wrap;html=1;" vertex="1" parent="1">
          <mxGeometry x="110" y="840" width="140" height="60" as="geometry" />
        </mxCell>
        <mxCell id="_r9maqkyMBtUnsPMcbrM-16" value="" style="endArrow=none;html=1;rounded=0;entryX=0;entryY=0.5;entryDx=0;entryDy=0;exitX=1;exitY=0.3333333333333333;exitDx=0;exitDy=0;exitPerimeter=0;" edge="1" parent="1" source="_r9maqkyMBtUnsPMcbrM-1" target="_r9maqkyMBtUnsPMcbrM-4">
          <mxGeometry width="50" height="50" relative="1" as="geometry">
            <mxPoint x="80" y="400" as="sourcePoint" />
            <mxPoint x="300" y="260" as="targetPoint" />
          </mxGeometry>
        </mxCell>
        <mxCell id="_r9maqkyMBtUnsPMcbrM-20" value="" style="endArrow=none;html=1;rounded=0;entryX=0;entryY=0.5;entryDx=0;entryDy=0;exitX=1;exitY=0.3333333333333333;exitDx=0;exitDy=0;exitPerimeter=0;" edge="1" parent="1" source="_r9maqkyMBtUnsPMcbrM-1" target="_r9maqkyMBtUnsPMcbrM-7">
          <mxGeometry width="50" height="50" relative="1" as="geometry">
            <mxPoint x="250" y="380" as="sourcePoint" />
            <mxPoint x="300" y="330" as="targetPoint" />
          </mxGeometry>
        </mxCell>
        <mxCell id="_r9maqkyMBtUnsPMcbrM-21" value="" style="endArrow=none;html=1;rounded=0;entryX=0;entryY=0.5;entryDx=0;entryDy=0;exitX=1;exitY=0.3333333333333333;exitDx=0;exitDy=0;exitPerimeter=0;" edge="1" parent="1" source="_r9maqkyMBtUnsPMcbrM-1" target="_r9maqkyMBtUnsPMcbrM-6">
          <mxGeometry width="50" height="50" relative="1" as="geometry">
            <mxPoint x="80" y="400" as="sourcePoint" />
            <mxPoint x="300" y="400" as="targetPoint" />
          </mxGeometry>
        </mxCell>
        <mxCell id="_r9maqkyMBtUnsPMcbrM-22" value="" style="endArrow=none;html=1;rounded=0;entryX=1;entryY=0.3333333333333333;entryDx=0;entryDy=0;entryPerimeter=0;exitX=0;exitY=0.5;exitDx=0;exitDy=0;" edge="1" parent="1" source="_r9maqkyMBtUnsPMcbrM-9" target="_r9maqkyMBtUnsPMcbrM-1">
          <mxGeometry width="50" height="50" relative="1" as="geometry">
            <mxPoint x="250" y="590" as="sourcePoint" />
            <mxPoint x="300" y="540" as="targetPoint" />
          </mxGeometry>
        </mxCell>
        <mxCell id="_r9maqkyMBtUnsPMcbrM-23" value="" style="endArrow=none;html=1;rounded=0;exitX=1;exitY=0.3333333333333333;exitDx=0;exitDy=0;exitPerimeter=0;entryX=0;entryY=0.5;entryDx=0;entryDy=0;" edge="1" parent="1" source="_r9maqkyMBtUnsPMcbrM-1" target="_r9maqkyMBtUnsPMcbrM-10">
          <mxGeometry width="50" height="50" relative="1" as="geometry">
            <mxPoint x="250" y="520" as="sourcePoint" />
            <mxPoint x="300" y="470" as="targetPoint" />
          </mxGeometry>
        </mxCell>
        <mxCell id="_r9maqkyMBtUnsPMcbrM-24" value="" style="endArrow=none;html=1;rounded=0;entryX=1;entryY=0.3333333333333333;entryDx=0;entryDy=0;entryPerimeter=0;exitX=0;exitY=0.5;exitDx=0;exitDy=0;" edge="1" parent="1" source="_r9maqkyMBtUnsPMcbrM-8" target="_r9maqkyMBtUnsPMcbrM-1">
          <mxGeometry width="50" height="50" relative="1" as="geometry">
            <mxPoint x="250" y="660" as="sourcePoint" />
            <mxPoint x="300" y="610" as="targetPoint" />
          </mxGeometry>
        </mxCell>
        <mxCell id="_r9maqkyMBtUnsPMcbrM-25" value="&lt;font style=&quot;font-size: 16px;&quot;&gt;Search room / booking&lt;/font&gt;" style="ellipse;whiteSpace=wrap;html=1;" vertex="1" parent="1">
          <mxGeometry x="110" y="920" width="140" height="60" as="geometry" />
        </mxCell>
        <mxCell id="_r9maqkyMBtUnsPMcbrM-26" value="&lt;font style=&quot;font-size: 16px;&quot;&gt;View booking&lt;/font&gt;" style="ellipse;whiteSpace=wrap;html=1;" vertex="1" parent="1">
          <mxGeometry x="110" y="1000" width="140" height="60" as="geometry" />
        </mxCell>
        <mxCell id="_r9maqkyMBtUnsPMcbrM-27" value="" style="endArrow=none;html=1;rounded=0;entryX=1;entryY=0.3333333333333333;entryDx=0;entryDy=0;entryPerimeter=0;exitX=0;exitY=0.5;exitDx=0;exitDy=0;" edge="1" parent="1" source="_r9maqkyMBtUnsPMcbrM-11" target="_r9maqkyMBtUnsPMcbrM-1">
          <mxGeometry width="50" height="50" relative="1" as="geometry">
            <mxPoint x="250" y="790" as="sourcePoint" />
            <mxPoint x="300" y="740" as="targetPoint" />
          </mxGeometry>
        </mxCell>
        <mxCell id="_r9maqkyMBtUnsPMcbrM-28" value="&lt;font style=&quot;font-size: 16px;&quot;&gt;Return room key&lt;/font&gt;" style="ellipse;whiteSpace=wrap;html=1;" vertex="1" parent="1">
          <mxGeometry x="110" y="1080" width="140" height="60" as="geometry" />
        </mxCell>
        <mxCell id="_r9maqkyMBtUnsPMcbrM-29" value="" style="endArrow=none;html=1;rounded=0;exitX=1;exitY=0.3333333333333333;exitDx=0;exitDy=0;exitPerimeter=0;entryX=0;entryY=0.5;entryDx=0;entryDy=0;" edge="1" parent="1" source="_r9maqkyMBtUnsPMcbrM-1" target="_r9maqkyMBtUnsPMcbrM-25">
          <mxGeometry width="50" height="50" relative="1" as="geometry">
            <mxPoint x="-80" y="620" as="sourcePoint" />
            <mxPoint x="120" y="990" as="targetPoint" />
          </mxGeometry>
        </mxCell>
        <mxCell id="_r9maqkyMBtUnsPMcbrM-30" value="" style="endArrow=none;html=1;rounded=0;entryX=0;entryY=0.5;entryDx=0;entryDy=0;exitX=1;exitY=0.3333333333333333;exitDx=0;exitDy=0;exitPerimeter=0;" edge="1" parent="1" source="_r9maqkyMBtUnsPMcbrM-1" target="_r9maqkyMBtUnsPMcbrM-26">
          <mxGeometry width="50" height="50" relative="1" as="geometry">
            <mxPoint y="1030" as="sourcePoint" />
            <mxPoint x="40" y="1000" as="targetPoint" />
          </mxGeometry>
        </mxCell>
        <mxCell id="_r9maqkyMBtUnsPMcbrM-31" value="" style="endArrow=none;html=1;rounded=0;entryX=0;entryY=0.5;entryDx=0;entryDy=0;exitX=1;exitY=0.3333333333333333;exitDx=0;exitDy=0;exitPerimeter=0;" edge="1" parent="1" source="_r9maqkyMBtUnsPMcbrM-1" target="_r9maqkyMBtUnsPMcbrM-28">
          <mxGeometry width="50" height="50" relative="1" as="geometry">
            <mxPoint y="1030" as="sourcePoint" />
            <mxPoint x="40" y="1000" as="targetPoint" />
          </mxGeometry>
        </mxCell>
        <mxCell id="_r9maqkyMBtUnsPMcbrM-32" value="&lt;font style=&quot;font-size: 16px;&quot;&gt;Receptionist&lt;/font&gt;" style="shape=umlActor;verticalLabelPosition=bottom;verticalAlign=top;html=1;outlineConnect=0;" vertex="1" parent="1">
          <mxGeometry x="827" y="280" width="60" height="120" as="geometry" />
        </mxCell>
        <mxCell id="_r9maqkyMBtUnsPMcbrM-34" value="" style="endArrow=none;html=1;rounded=0;entryX=1;entryY=0.5;entryDx=0;entryDy=0;exitX=0;exitY=0.3333333333333333;exitDx=0;exitDy=0;exitPerimeter=0;" edge="1" parent="1" source="_r9maqkyMBtUnsPMcbrM-32" target="_r9maqkyMBtUnsPMcbrM-4">
          <mxGeometry width="50" height="50" relative="1" as="geometry">
            <mxPoint x="220" y="430" as="sourcePoint" />
            <mxPoint x="270" y="380" as="targetPoint" />
          </mxGeometry>
        </mxCell>
        <mxCell id="_r9maqkyMBtUnsPMcbrM-35" value="" style="endArrow=none;html=1;rounded=0;entryX=1;entryY=0.5;entryDx=0;entryDy=0;exitX=0;exitY=0.3333333333333333;exitDx=0;exitDy=0;exitPerimeter=0;" edge="1" parent="1" source="_r9maqkyMBtUnsPMcbrM-32" target="_r9maqkyMBtUnsPMcbrM-6">
          <mxGeometry width="50" height="50" relative="1" as="geometry">
            <mxPoint x="220" y="450" as="sourcePoint" />
            <mxPoint x="270" y="400" as="targetPoint" />
          </mxGeometry>
        </mxCell>
        <mxCell id="_r9maqkyMBtUnsPMcbrM-36" value="" style="endArrow=none;html=1;rounded=0;entryX=1;entryY=0.5;entryDx=0;entryDy=0;exitX=0;exitY=0.3333333333333333;exitDx=0;exitDy=0;exitPerimeter=0;" edge="1" parent="1" source="_r9maqkyMBtUnsPMcbrM-32" target="_r9maqkyMBtUnsPMcbrM-7">
          <mxGeometry width="50" height="50" relative="1" as="geometry">
            <mxPoint x="220" y="450" as="sourcePoint" />
            <mxPoint x="270" y="400" as="targetPoint" />
          </mxGeometry>
        </mxCell>
        <mxCell id="_r9maqkyMBtUnsPMcbrM-37" value="" style="endArrow=none;html=1;rounded=0;entryX=1;entryY=0.5;entryDx=0;entryDy=0;exitX=0;exitY=0.3333333333333333;exitDx=0;exitDy=0;exitPerimeter=0;" edge="1" parent="1" source="_r9maqkyMBtUnsPMcbrM-32" target="_r9maqkyMBtUnsPMcbrM-9">
          <mxGeometry width="50" height="50" relative="1" as="geometry">
            <mxPoint x="220" y="790" as="sourcePoint" />
            <mxPoint x="270" y="740" as="targetPoint" />
          </mxGeometry>
        </mxCell>
        <mxCell id="_r9maqkyMBtUnsPMcbrM-38" value="" style="endArrow=none;html=1;rounded=0;entryX=1;entryY=0.5;entryDx=0;entryDy=0;exitX=0;exitY=0.3333333333333333;exitDx=0;exitDy=0;exitPerimeter=0;" edge="1" parent="1" source="_r9maqkyMBtUnsPMcbrM-32" target="_r9maqkyMBtUnsPMcbrM-8">
          <mxGeometry width="50" height="50" relative="1" as="geometry">
            <mxPoint x="220" y="790" as="sourcePoint" />
            <mxPoint x="270" y="740" as="targetPoint" />
          </mxGeometry>
        </mxCell>
        <mxCell id="_r9maqkyMBtUnsPMcbrM-39" value="" style="endArrow=none;html=1;rounded=0;entryX=1;entryY=0.5;entryDx=0;entryDy=0;exitX=0;exitY=0.3333333333333333;exitDx=0;exitDy=0;exitPerimeter=0;" edge="1" parent="1" source="_r9maqkyMBtUnsPMcbrM-32" target="_r9maqkyMBtUnsPMcbrM-10">
          <mxGeometry width="50" height="50" relative="1" as="geometry">
            <mxPoint x="220" y="790" as="sourcePoint" />
            <mxPoint x="270" y="740" as="targetPoint" />
          </mxGeometry>
        </mxCell>
        <mxCell id="_r9maqkyMBtUnsPMcbrM-40" value="" style="endArrow=none;html=1;rounded=0;exitX=1;exitY=0.5;exitDx=0;exitDy=0;entryX=0;entryY=0.3333333333333333;entryDx=0;entryDy=0;entryPerimeter=0;" edge="1" parent="1" source="_r9maqkyMBtUnsPMcbrM-11" target="_r9maqkyMBtUnsPMcbrM-32">
          <mxGeometry width="50" height="50" relative="1" as="geometry">
            <mxPoint x="220" y="790" as="sourcePoint" />
            <mxPoint x="560" y="670" as="targetPoint" />
          </mxGeometry>
        </mxCell>
        <mxCell id="_r9maqkyMBtUnsPMcbrM-41" value="" style="endArrow=none;html=1;rounded=0;entryX=1;entryY=0.5;entryDx=0;entryDy=0;exitX=0;exitY=0.3333333333333333;exitDx=0;exitDy=0;exitPerimeter=0;" edge="1" parent="1" source="_r9maqkyMBtUnsPMcbrM-32" target="_r9maqkyMBtUnsPMcbrM-25">
          <mxGeometry width="50" height="50" relative="1" as="geometry">
            <mxPoint x="220" y="790" as="sourcePoint" />
            <mxPoint x="270" y="740" as="targetPoint" />
          </mxGeometry>
        </mxCell>
        <mxCell id="_r9maqkyMBtUnsPMcbrM-42" value="" style="endArrow=none;html=1;rounded=0;entryX=1;entryY=0.5;entryDx=0;entryDy=0;exitX=0;exitY=0.3333333333333333;exitDx=0;exitDy=0;exitPerimeter=0;" edge="1" parent="1" source="_r9maqkyMBtUnsPMcbrM-32" target="_r9maqkyMBtUnsPMcbrM-26">
          <mxGeometry width="50" height="50" relative="1" as="geometry">
            <mxPoint x="220" y="1030" as="sourcePoint" />
            <mxPoint x="270" y="980" as="targetPoint" />
          </mxGeometry>
        </mxCell>
        <mxCell id="_r9maqkyMBtUnsPMcbrM-44" value="" style="endArrow=none;html=1;rounded=0;exitX=1;exitY=0.3333333333333333;exitDx=0;exitDy=0;exitPerimeter=0;entryX=0;entryY=0.5;entryDx=0;entryDy=0;" edge="1" parent="1" source="_r9maqkyMBtUnsPMcbrM-1" target="_r9maqkyMBtUnsPMcbrM-5">
          <mxGeometry width="50" height="50" relative="1" as="geometry">
            <mxPoint x="220" y="520" as="sourcePoint" />
            <mxPoint x="270" y="470" as="targetPoint" />
          </mxGeometry>
        </mxCell>
        <mxCell id="_r9maqkyMBtUnsPMcbrM-46" value="&lt;font style=&quot;font-size: 16px;&quot;&gt;Update room&lt;/font&gt;" style="ellipse;whiteSpace=wrap;html=1;" vertex="1" parent="1">
          <mxGeometry x="430" y="40" width="140" height="60" as="geometry" />
        </mxCell>
        <mxCell id="_r9maqkyMBtUnsPMcbrM-47" value="&lt;font style=&quot;font-size: 16px;&quot;&gt;Add room&lt;/font&gt;" style="ellipse;whiteSpace=wrap;html=1;" vertex="1" parent="1">
          <mxGeometry x="430" y="120" width="140" height="60" as="geometry" />
        </mxCell>
        <mxCell id="_r9maqkyMBtUnsPMcbrM-49" value="&lt;font style=&quot;font-size: 16px;&quot;&gt;Remove room&lt;/font&gt;" style="ellipse;whiteSpace=wrap;html=1;" vertex="1" parent="1">
          <mxGeometry x="430" y="200" width="140" height="60" as="geometry" />
        </mxCell>
        <mxCell id="_r9maqkyMBtUnsPMcbrM-50" value="" style="endArrow=none;html=1;rounded=0;entryX=1;entryY=0.5;entryDx=0;entryDy=0;exitX=0;exitY=0.3333333333333333;exitDx=0;exitDy=0;exitPerimeter=0;" edge="1" parent="1" source="_r9maqkyMBtUnsPMcbrM-32" target="_r9maqkyMBtUnsPMcbrM-49">
          <mxGeometry width="50" height="50" relative="1" as="geometry">
            <mxPoint x="440" y="510" as="sourcePoint" />
            <mxPoint x="490" y="460" as="targetPoint" />
          </mxGeometry>
        </mxCell>
        <mxCell id="_r9maqkyMBtUnsPMcbrM-51" value="" style="endArrow=none;html=1;rounded=0;entryX=1;entryY=0.5;entryDx=0;entryDy=0;exitX=0;exitY=0.3333333333333333;exitDx=0;exitDy=0;exitPerimeter=0;" edge="1" parent="1" source="_r9maqkyMBtUnsPMcbrM-32" target="_r9maqkyMBtUnsPMcbrM-47">
          <mxGeometry width="50" height="50" relative="1" as="geometry">
            <mxPoint x="440" y="510" as="sourcePoint" />
            <mxPoint x="490" y="460" as="targetPoint" />
          </mxGeometry>
        </mxCell>
        <mxCell id="_r9maqkyMBtUnsPMcbrM-52" value="" style="endArrow=none;html=1;rounded=0;entryX=1;entryY=0.5;entryDx=0;entryDy=0;exitX=0;exitY=0.3333333333333333;exitDx=0;exitDy=0;exitPerimeter=0;" edge="1" parent="1" source="_r9maqkyMBtUnsPMcbrM-32" target="_r9maqkyMBtUnsPMcbrM-46">
          <mxGeometry width="50" height="50" relative="1" as="geometry">
            <mxPoint x="440" y="510" as="sourcePoint" />
            <mxPoint x="490" y="460" as="targetPoint" />
          </mxGeometry>
        </mxCell>
        <mxCell id="_r9maqkyMBtUnsPMcbrM-53" value="&lt;font style=&quot;font-size: 16px;&quot;&gt;Refund payment&lt;/font&gt;" style="ellipse;whiteSpace=wrap;html=1;" vertex="1" parent="1">
          <mxGeometry x="160" y="560" width="140" height="60" as="geometry" />
        </mxCell>
        <mxCell id="_r9maqkyMBtUnsPMcbrM-58" value="&lt;font style=&quot;font-size: 16px;&quot;&gt;Check in guest&lt;/font&gt;" style="ellipse;whiteSpace=wrap;html=1;" vertex="1" parent="1">
          <mxGeometry x="470" y="770" width="140" height="60" as="geometry" />
        </mxCell>
        <mxCell id="_r9maqkyMBtUnsPMcbrM-59" value="&lt;font style=&quot;font-size: 16px;&quot;&gt;Check out guest&lt;/font&gt;" style="ellipse;whiteSpace=wrap;html=1;" vertex="1" parent="1">
          <mxGeometry x="590" y="960" width="140" height="60" as="geometry" />
        </mxCell>
        <mxCell id="_r9maqkyMBtUnsPMcbrM-60" value="" style="endArrow=block;html=1;rounded=0;exitX=0;exitY=0.5;exitDx=0;exitDy=0;entryX=1;entryY=0.5;entryDx=0;entryDy=0;dashed=1;endFill=0;" edge="1" parent="1" source="_r9maqkyMBtUnsPMcbrM-59" target="_r9maqkyMBtUnsPMcbrM-28">
          <mxGeometry width="50" height="50" relative="1" as="geometry">
            <mxPoint x="480" y="780" as="sourcePoint" />
            <mxPoint x="530" y="730" as="targetPoint" />
          </mxGeometry>
        </mxCell>
        <mxCell id="_r9maqkyMBtUnsPMcbrM-61" value="&lt;font style=&quot;font-size: 16px;&quot;&gt;&amp;lt;&amp;lt;include&amp;gt;&amp;gt;&lt;/font&gt;" style="edgeLabel;html=1;align=center;verticalAlign=middle;resizable=0;points=[];" vertex="1" connectable="0" parent="_r9maqkyMBtUnsPMcbrM-60">
          <mxGeometry x="-0.1192" y="-3" relative="1" as="geometry">
            <mxPoint x="-8" y="7" as="offset" />
          </mxGeometry>
        </mxCell>
        <mxCell id="_r9maqkyMBtUnsPMcbrM-62" value="" style="endArrow=none;html=1;rounded=0;entryX=0;entryY=0.3333333333333333;entryDx=0;entryDy=0;entryPerimeter=0;exitX=0.5;exitY=0;exitDx=0;exitDy=0;" edge="1" parent="1" source="_r9maqkyMBtUnsPMcbrM-59" target="_r9maqkyMBtUnsPMcbrM-32">
          <mxGeometry width="50" height="50" relative="1" as="geometry">
            <mxPoint x="480" y="780" as="sourcePoint" />
            <mxPoint x="530" y="730" as="targetPoint" />
          </mxGeometry>
        </mxCell>
        <mxCell id="_r9maqkyMBtUnsPMcbrM-63" value="" style="endArrow=none;html=1;rounded=0;entryX=0;entryY=0.3333333333333333;entryDx=0;entryDy=0;entryPerimeter=0;exitX=0.5;exitY=0;exitDx=0;exitDy=0;" edge="1" parent="1" source="_r9maqkyMBtUnsPMcbrM-58" target="_r9maqkyMBtUnsPMcbrM-32">
          <mxGeometry width="50" height="50" relative="1" as="geometry">
            <mxPoint x="480" y="680" as="sourcePoint" />
            <mxPoint x="530" y="630" as="targetPoint" />
          </mxGeometry>
        </mxCell>
        <mxCell id="_r9maqkyMBtUnsPMcbrM-64" value="&lt;font style=&quot;font-size: 16px;&quot;&gt;Issue room key&lt;/font&gt;" style="ellipse;whiteSpace=wrap;html=1;" vertex="1" parent="1">
          <mxGeometry x="470" y="880" width="140" height="60" as="geometry" />
        </mxCell>
        <mxCell id="_r9maqkyMBtUnsPMcbrM-65" value="" style="endArrow=block;html=1;rounded=0;exitX=0.5;exitY=1;exitDx=0;exitDy=0;entryX=0.5;entryY=0;entryDx=0;entryDy=0;dashed=1;endFill=0;" edge="1" parent="1" source="_r9maqkyMBtUnsPMcbrM-58" target="_r9maqkyMBtUnsPMcbrM-64">
          <mxGeometry width="50" height="50" relative="1" as="geometry">
            <mxPoint x="410" y="850" as="sourcePoint" />
            <mxPoint x="170" y="970" as="targetPoint" />
          </mxGeometry>
        </mxCell>
        <mxCell id="_r9maqkyMBtUnsPMcbrM-66" value="&lt;font style=&quot;font-size: 16px;&quot;&gt;&amp;lt;&amp;lt;include&amp;gt;&amp;gt;&lt;/font&gt;" style="edgeLabel;html=1;align=center;verticalAlign=middle;resizable=0;points=[];" vertex="1" connectable="0" parent="_r9maqkyMBtUnsPMcbrM-65">
          <mxGeometry x="-0.1192" y="-3" relative="1" as="geometry">
            <mxPoint x="3" as="offset" />
          </mxGeometry>
        </mxCell>
        <mxCell id="_r9maqkyMBtUnsPMcbrM-67" value="" style="endArrow=block;html=1;rounded=0;exitX=0.5;exitY=1;exitDx=0;exitDy=0;entryX=0.5;entryY=0;entryDx=0;entryDy=0;dashed=1;endFill=0;" edge="1" parent="1" source="_r9maqkyMBtUnsPMcbrM-9" target="_r9maqkyMBtUnsPMcbrM-53">
          <mxGeometry width="50" height="50" relative="1" as="geometry">
            <mxPoint x="420" y="860" as="sourcePoint" />
            <mxPoint x="180" y="980" as="targetPoint" />
          </mxGeometry>
        </mxCell>
        <mxCell id="_r9maqkyMBtUnsPMcbrM-68" value="&lt;font style=&quot;font-size: 16px;&quot;&gt;&amp;lt;&amp;lt;include&amp;gt;&amp;gt;&lt;/font&gt;" style="edgeLabel;html=1;align=center;verticalAlign=middle;resizable=0;points=[];" vertex="1" connectable="0" parent="_r9maqkyMBtUnsPMcbrM-67">
          <mxGeometry x="-0.1192" y="-3" relative="1" as="geometry">
            <mxPoint x="6" as="offset" />
          </mxGeometry>
        </mxCell>
        <mxCell id="_r9maqkyMBtUnsPMcbrM-69" value="" style="endArrow=block;html=1;rounded=0;exitX=0.5;exitY=0;exitDx=0;exitDy=0;entryX=1;entryY=1;entryDx=0;entryDy=0;dashed=1;endFill=0;" edge="1" parent="1" source="_r9maqkyMBtUnsPMcbrM-4" target="_r9maqkyMBtUnsPMcbrM-5">
          <mxGeometry width="50" height="50" relative="1" as="geometry">
            <mxPoint x="360" y="-70" as="sourcePoint" />
            <mxPoint x="120" y="50" as="targetPoint" />
          </mxGeometry>
        </mxCell>
        <mxCell id="_r9maqkyMBtUnsPMcbrM-70" value="&lt;font style=&quot;font-size: 16px;&quot;&gt;&amp;lt;&amp;lt;include&amp;gt;&amp;gt;&lt;/font&gt;" style="edgeLabel;html=1;align=center;verticalAlign=middle;resizable=0;points=[];" vertex="1" connectable="0" parent="_r9maqkyMBtUnsPMcbrM-69">
          <mxGeometry x="-0.1192" y="-3" relative="1" as="geometry">
            <mxPoint x="-1" y="-8" as="offset" />
          </mxGeometry>
        </mxCell>
        <mxCell id="_r9maqkyMBtUnsPMcbrM-72" value="" style="endArrow=none;html=1;rounded=0;entryX=0;entryY=0.3333333333333333;entryDx=0;entryDy=0;entryPerimeter=0;exitX=1;exitY=0.5;exitDx=0;exitDy=0;" edge="1" parent="1" source="_r9maqkyMBtUnsPMcbrM-64" target="_r9maqkyMBtUnsPMcbrM-32">
          <mxGeometry width="50" height="50" relative="1" as="geometry">
            <mxPoint x="480" y="580" as="sourcePoint" />
            <mxPoint x="530" y="530" as="targetPoint" />
          </mxGeometry>
        </mxCell>
        <mxCell id="_r9maqkyMBtUnsPMcbrM-73" value="&lt;font style=&quot;font-size: 16px;&quot;&gt;Manager&lt;/font&gt;" style="shape=umlActor;verticalLabelPosition=bottom;verticalAlign=top;html=1;outlineConnect=0;" vertex="1" parent="1">
          <mxGeometry x="1000" y="440" width="60" height="120" as="geometry" />
        </mxCell>
        <mxCell id="_r9maqkyMBtUnsPMcbrM-75" value="" style="endArrow=classic;html=1;rounded=0;entryX=1;entryY=0.3333333333333333;entryDx=0;entryDy=0;entryPerimeter=0;exitX=0;exitY=0.3333333333333333;exitDx=0;exitDy=0;exitPerimeter=0;" edge="1" parent="1" source="_r9maqkyMBtUnsPMcbrM-73" target="_r9maqkyMBtUnsPMcbrM-32">
          <mxGeometry width="50" height="50" relative="1" as="geometry">
            <mxPoint x="480" y="680" as="sourcePoint" />
            <mxPoint x="530" y="630" as="targetPoint" />
          </mxGeometry>
        </mxCell>
        <mxCell id="_r9maqkyMBtUnsPMcbrM-76" value="&lt;font style=&quot;font-size: 16px;&quot;&gt;Add / modify employee&lt;/font&gt;" style="ellipse;whiteSpace=wrap;html=1;" vertex="1" parent="1">
          <mxGeometry x="827" y="560" width="140" height="60" as="geometry" />
        </mxCell>
        <mxCell id="_r9maqkyMBtUnsPMcbrM-77" value="&lt;font style=&quot;font-size: 16px;&quot;&gt;Issue employee card&lt;/font&gt;" style="ellipse;whiteSpace=wrap;html=1;" vertex="1" parent="1">
          <mxGeometry x="827" y="460" width="140" height="60" as="geometry" />
        </mxCell>
        <mxCell id="_r9maqkyMBtUnsPMcbrM-82" value="" style="endArrow=none;html=1;rounded=0;entryX=1;entryY=0.5;entryDx=0;entryDy=0;exitX=0;exitY=0.3333333333333333;exitDx=0;exitDy=0;exitPerimeter=0;strokeWidth=2;fillColor=#ffe6cc;strokeColor=#d79b00;" edge="1" parent="1" source="_r9maqkyMBtUnsPMcbrM-73" target="_r9maqkyMBtUnsPMcbrM-77">
          <mxGeometry width="50" height="50" relative="1" as="geometry">
            <mxPoint x="480" y="490" as="sourcePoint" />
            <mxPoint x="530" y="440" as="targetPoint" />
          </mxGeometry>
        </mxCell>
        <mxCell id="_r9maqkyMBtUnsPMcbrM-83" value="" style="endArrow=none;html=1;rounded=0;entryX=0;entryY=0.3333333333333333;entryDx=0;entryDy=0;entryPerimeter=0;exitX=1;exitY=0.5;exitDx=0;exitDy=0;strokeWidth=2;fillColor=#ffe6cc;strokeColor=#d79b00;" edge="1" parent="1" source="_r9maqkyMBtUnsPMcbrM-76" target="_r9maqkyMBtUnsPMcbrM-73">
          <mxGeometry width="50" height="50" relative="1" as="geometry">
            <mxPoint x="480" y="490" as="sourcePoint" />
            <mxPoint x="530" y="440" as="targetPoint" />
          </mxGeometry>
        </mxCell>
      </root>
    </mxGraphModel>
  </diagram>
</mxfile>
